<svg xmlns="http://www.w3.org/2000/svg" width="15" height="17" viewBox="0 0 15 17">
    <g fill="#FFF" fill-rule="nonzero" opacity=".6">
        <path d="M10.562 5.517l-1.258-.048-.272 7.711 1.257.048zM6.871 5.493h1.258v7.711H6.871zM5.968 13.18L5.696 5.47l-1.258.048.273 7.71z"/>
        <path d="M.012 2.278v1.303h1.311l1.04 12.244c.03.336.301.594.627.594h8.998a.638.638 0 0 0 .627-.595l1.04-12.243h1.333V2.278H.012zm11.4 12.838H3.567L2.587 3.58h9.805l-.98 11.535z"/>
        <path d="M9.486 0H5.514C4.954 0 4.5.464 4.5 1.034V3h1.216V1.241h3.568V3H10.5V1.034C10.5.464 10.045 0 9.486 0z"/>
    </g>
</svg>
