<svg xmlns="http://www.w3.org/2000/svg" width="24" height="24" viewBox="0 0 24 24">
    <g data-name="edit-2/bulk">
        <g data-name="vuesax/bulk/edit-2">
            <path d="M18.75 1.5h-18A.755.755 0 0 1 0 .75.755.755 0 0 1 .75 0h18a.755.755 0 0 1 .75.75.755.755 0 0 1-.75.75z" transform="translate(2.25 20.5)" style="opacity:.4;fill:#116780"/>
            <path data-name="Vector" d="M7.155 1.474c-1.94-1.94-3.84-1.99-5.83 0l-1.21 1.21a.417.417 0 0 0-.1.4 8.129 8.129 0 0 0 5.53 5.53.5.5 0 0 0 .12.02.4.4 0 0 0 .29-.12l1.2-1.21a4.133 4.133 0 0 0 1.47-2.89 4.117 4.117 0 0 0-1.47-2.94z" transform="translate(11.865 2.006)" style="opacity:.4;fill:#116780"/>
            <path data-name="Vector" d="M12.116 5.48c-.29-.14-.57-.28-.84-.44a8.8 8.8 0 0 1-.64-.42 6.038 6.038 0 0 1-.56-.43 1.22 1.22 0 0 1-.17-.15A8.457 8.457 0 0 1 8.876 3a1.218 1.218 0 0 1-.15-.18 5.816 5.816 0 0 1-.42-.55 5.491 5.491 0 0 1-.39-.59c-.16-.27-.3-.54-.44-.82-.14-.3-.25-.59-.35-.86L.846 6.28a1.2 1.2 0 0 0-.28.55l-.54 3.83a2.05 2.05 0 0 0 .51 1.75 1.991 1.991 0 0 0 1.4.54 2.186 2.186 0 0 0 .36-.03l3.84-.54a1.113 1.113 0 0 0 .55-.28l6.28-6.28c-.28-.1-.55-.21-.85-.34z" transform="translate(3.494 6.05)" style="fill:#116780"/>
        </g>
    </g>
</svg>
