<svg xmlns="http://www.w3.org/2000/svg" width="47" height="47" viewBox="0 0 47 47">
    <path d="M23.5 0C47 0 47 0 47 23.5S47 47 23.5 47 0 47 0 23.5 0 0 23.5 0z" style="fill:#116780"/>
    <g data-name="Group 4274">
        <path data-name="Path 374" d="m695.806 539 .03-.066h.01z" transform="translate(-659.292 -507.149)" style="fill-rule:evenodd;fill:#fff"/>
        <g data-name="Group 26">
            <path data-name="Path 375" d="M659.252 434.185z" transform="translate(-630.275 -423.369)" style="fill:#fff"/>
            <path data-name="Path 376" d="M587.252 438.492a14.543 14.543 0 0 0-9.68-11.654 15.536 15.536 0 0 1 6.627 9.421 18.383 18.383 0 0 1 .568 3.7 12.242 12.242 0 0 1-1.225 5.347c-.07.147-.144.292-.22.435a12.42 12.42 0 0 1-.8 1.3 12.954 12.954 0 0 1-21.1.047 12.282 12.282 0 0 1-2.273-7.126 12.452 12.452 0 0 1 5.376-10.207 16.214 16.214 0 0 1 5.626-2.207h.013a13.178 13.178 0 0 1 1.789-.122h.2a6.535 6.535 0 0 1 1.775.334l.167.06c4.609 2.562-5.338 8.779-14.112 10.208l6.316 8.519 3.435-1.517-2.382-4.211c3.067-.875 6.024-1.993 8.424-4.5a7.408 7.408 0 0 0 .894-7.983c-.006-.011-.011-.022-.018-.032a6.543 6.543 0 0 0-5.909-3.304h-.108c-.18 0-.36.01-.539.022a15.476 15.476 0 0 0-6.1 2.07l-.013.007a15.378 15.378 0 0 0-3.953 3.381 14.755 14.755 0 0 0-.795 17.9 15.534 15.534 0 0 0 25.794-.529l.041-.064.1-.166a14.707 14.707 0 0 0 2.148-7.588v-.079q.006-.738-.066-1.462z" transform="translate(-548.594 -416)" style="fill:#fff"/>
        </g>
        <path data-name="Path 377" d="M655.5 466.363c1.4 2.888.3 5.829-4.445 8.846l1.285 4.013c5.742-3.864 7.42-8.094 3.16-12.859z" transform="translate(-623.379 -449.01)" style="fill:#21a6a1;fill-rule:evenodd"/>
        <path data-name="Path 378" d="M628.219 456.082a8.532 8.532 0 0 1-1.806 5.622c-2.159 2.431-6.577 3.823-6.55 4 .053.338 2.517 5.511 2.517 5.511l3.107-1.16-1.179-3.094c5.117-2.951 7.509-6.383 3.911-10.879z" transform="translate(-598.718 -440.783)" style="fill:#21a6a1;fill-rule:evenodd"/>
    </g>
</svg>
