<svg xmlns="http://www.w3.org/2000/svg" width="30.526" height="20" viewBox="0 0 30.526 20">
    <g data-name="lang - arab">
        <path data-name="Path 439" d="M30 108.276H.526A.526.526 0 0 1 0 107.75V88.8a.526.526 0 0 1 .526-.526H30a.526.526 0 0 1 .526.526v18.95a.526.526 0 0 1-.526.526z" transform="translate(0 -88.276)" style="fill:#73af00"/>
        <g data-name="Group 40">
            <path data-name="Path 440" d="M102.431 168.3c.054.343.261.451.441.437a.443.443 0 0 0 .4-.416v-1.177a.107.107 0 1 1 .214 0v1.182a.428.428 0 0 0 .587.4l.107-.043c.01.988-.05 1.857-.051 1.873a.214.214 0 0 0 .2.229h.016a.214.214 0 0 0 .213-.2c0-.07.071-1.021.051-2.074l.065-.026a.215.215 0 0 1 .175.007.612.612 0 0 0 .706-.115l.039-.039a.639.639 0 0 0 .155-.657l-.182-.547a.214.214 0 0 0 .159-.4l-.428-.214a.214.214 0 0 0-.3.259l.344 1.033a.213.213 0 0 1-.052.219l-.039.039a.184.184 0 0 1-.212.034.64.64 0 0 0-.445-.045 7.384 7.384 0 0 0-.262-1.845.214.214 0 0 0-.406.135 7.36 7.36 0 0 1 .245 1.869l-.256.1v-1.182a.535.535 0 1 0-1.071 0v1.036l-.218-1.079a.214.214 0 1 0-.42.085z" transform="translate(-96.4 -161.606)" style="fill:#f5f5f5"/>
            <path data-name="Path 441" d="M109.374 163.236a.214.214 0 0 0 .214-.214v-.214a.214.214 0 0 0-.428 0v.214a.214.214 0 0 0 .214.214z" transform="translate(-102.931 -158.344)" style="fill:#f5f5f5"/>
            <path data-name="Path 442" d="M144.171 163.022h.214a.214.214 0 0 0 0-.428h-.214a.214.214 0 1 0 0 .428z" transform="translate(-135.587 -158.344)" style="fill:#f5f5f5"/>
            <path data-name="Path 443" d="m106.854 214.821-1.07.642a.214.214 0 1 0 .22.367l1.07-.642a.214.214 0 1 0-.22-.367z" transform="translate(-99.664 -207.328)" style="fill:#f5f5f5"/>
            <path data-name="Path 444" d="M119.464 169.48h.005a.489.489 0 0 0 .1.2.421.421 0 0 0 .365.142.591.591 0 0 0 .445-.234.389.389 0 0 0 .045.027.405.405 0 0 0 .377-.012.813.813 0 0 0 .383-.754.219.219 0 0 0-.223-.2.215.215 0 0 0-.2.222s0 .257-.15.351a.521.521 0 0 1-.067-.18.214.214 0 0 0-.425.035c0 .031-.007.306-.219.329a.523.523 0 0 1 0-.28.214.214 0 0 0-.329-.227l-.119.081a71.71 71.71 0 0 0-.189-2.707.214.214 0 1 0-.426.039c0 .02.153 1.694.2 2.972l-.033.032a.552.552 0 0 0-.469-.368.781.781 0 0 0-.754.477.506.506 0 0 0 .164.638.714.714 0 0 0 .639.029 1.79 1.79 0 0 1-.348.66.9.9 0 0 1-.684.349.562.562 0 0 1-.416-.177 1.222 1.222 0 0 1-.226-.766.214.214 0 0 0-.2-.225.21.21 0 0 0-.226.2 1.642 1.642 0 0 0 .336 1.076.982.982 0 0 0 .717.318h.043a1.3 1.3 0 0 0 .982-.5 2.215 2.215 0 0 0 .49-1.1 2.426 2.426 0 0 1-1.027 1.922 1.069 1.069 0 0 1-1.072.078.918.918 0 0 1-.471-.906.214.214 0 1 0-.425-.053 1.344 1.344 0 0 0 .706 1.342 1.455 1.455 0 0 0 .648.154 1.584 1.584 0 0 0 .84-.253 2.846 2.846 0 0 0 1.23-2.288c-.01-.134-.013-.285-.017-.443zm-1.291.221c-.038-.025-.008-.106 0-.122a.364.364 0 0 1 .3-.211h.017c.027 0 .1.009.131.171q0 .026.008.053c-.241.14-.401.144-.456.108z" transform="translate(-109.388 -161.609)" style="fill:#f5f5f5"/>
            <path data-name="Path 445" d="M102.036 243.52a.214.214 0 0 0-.293.076.439.439 0 0 1-.036.051l-.007-.018a1.44 1.44 0 0 1 .006-.726.214.214 0 0 0-.414-.11 1.844 1.844 0 0 0 .006.987c.1.262.249.328.358.337h.029a.562.562 0 0 0 .426-.306.214.214 0 0 0-.075-.291z" transform="translate(-95.485 -233.459)" style="fill:#f5f5f5"/>
            <path data-name="Path 446" d="M175.344 164.522a.212.212 0 0 0 .132-.046l1.079-.847a.206.206 0 0 0 .035-.041.536.536 0 1 0-.615-.048l-.764.6a.214.214 0 0 0 .132.382zm.972-1.5a.107.107 0 1 1-.107.107.107.107 0 0 1 .107-.106z" transform="translate(-164.842 -158.345)" style="fill:#f5f5f5"/>
            <path data-name="Path 447" d="M185.465 190.443a.214.214 0 0 0-.271.135.654.654 0 0 0 .083.631.432.432 0 0 0 .32.122.94.94 0 0 0 .3-.055.214.214 0 1 0-.136-.406.741.741 0 0 1-.175.037.41.41 0 0 1 .018-.2.214.214 0 0 0-.139-.264z" transform="translate(-174.244 -184.469)" style="fill:#f5f5f5"/>
            <path data-name="Path 448" d="M227.77 163.3a.214.214 0 0 0 .266-.146l.125-.428a.214.214 0 1 0-.411-.12l-.125.428a.214.214 0 0 0 .145.266z" transform="translate(-214.099 -158.206)" style="fill:#f5f5f5"/>
            <path data-name="Path 449" d="M206.039 159.94a.214.214 0 1 0 .216-.37c-.043-.025-.037-.1-.036-.11a.168.168 0 0 1 .1-.143.214.214 0 0 0-.127-.409.588.588 0 0 0-.4.5.528.528 0 0 0 .247.532z" transform="translate(-193.615 -154.875)" style="fill:#f5f5f5"/>
            <path data-name="Path 450" d="M178.968 232.19a.214.214 0 0 0-.04.424.4.4 0 0 1 .04.218.214.214 0 1 0 .428 0c.004-.632-.41-.642-.428-.642z" transform="translate(-168.243 -223.658)" style="fill:#f5f5f5"/>
            <path data-name="Path 451" d="M234.852 208.442a.494.494 0 0 0 .081.006.732.732 0 0 0 .506-.253.214.214 0 1 0-.3-.3c-.128.128-.2.131-.215.127-.041-.006-.078-.059-.086-.074a.214.214 0 0 0-.382.194.579.579 0 0 0 .396.3z" transform="translate(-220.495 -200.796)" style="fill:#f5f5f5"/>
            <path data-name="Path 452" d="M294.006 190.97v-.009a.214.214 0 0 0-.406.137.479.479 0 0 0 .348.334.359.359 0 0 0 .047 0 .524.524 0 0 0 .414-.286.214.214 0 0 0-.356-.237.653.653 0 0 1-.047.061z" transform="translate(-276.01 -184.829)" style="fill:#f5f5f5"/>
            <path data-name="Path 453" d="M205.413 171.633c0-.913-.04-1.769-.1-2.52a10.843 10.843 0 0 1 .752 1.525.214.214 0 1 0 .4-.15 14.178 14.178 0 0 0-1.238-2.347c-.117-1.153-.248-1.885-.25-1.9a.214.214 0 0 0-.421.076c0 .009.069.386.15 1.021a36.51 36.51 0 0 0-.446-.646h.01a.214.214 0 1 0 .136-.406l-.642-.214a.213.213 0 0 0-.241.078.216.216 0 0 0-.031.066.467.467 0 0 0-.447-.107.364.364 0 0 0-.2.381 1.934 1.934 0 0 0 .148.607c.126.357.205.62.072.745a.234.234 0 0 1-.219.077c-.132-.033-.263-.209-.35-.47a.2.2 0 0 0-.017-.03 3.64 3.64 0 0 0-.065-1.185.214.214 0 1 0-.42.084 2.038 2.038 0 0 1-.112 1.526.384.384 0 0 1-.32.145.123.123 0 0 1-.1-.048 2.063 2.063 0 0 1-.114-1.207.214.214 0 0 0-.212-.244c-.368 0-.508.419-.631.789-.054.162-.155.465-.225.5-.13 0-.213-.381-.214-.642a.214.214 0 0 0-.214-.214.214.214 0 0 0-.214.214c0 .494.168 1.07.642 1.07.353 0 .5-.385.616-.742a1.342 1.342 0 0 0 .243.761.549.549 0 0 0 .426.2.815.815 0 0 0 .651-.3.987.987 0 0 0 .079-.118.8.8 0 0 0 .449.337.617.617 0 0 0 .151.019.679.679 0 0 0 .466-.2.636.636 0 0 0 .072-.086.577.577 0 0 0 .158.024.866.866 0 0 0 .444-.136.214.214 0 0 0-.23-.361.454.454 0 0 1-.242.064 2.209 2.209 0 0 0-.162-.7 2.969 2.969 0 0 1-.111-.358c.018.015.035.03.05.045a.214.214 0 0 0 .3 0 .206.206 0 0 0 .031-.047c.222.306.678.948 1.148 1.689.09.91.168 2.071.168 3.345a.214.214 0 0 0 .428 0z" transform="translate(-187.837 -161.602)" style="fill:#f5f5f5"/>
            <path data-name="Path 454" d="M293.8 166.932a.214.214 0 0 0 .428 0 2.182 2.182 0 0 0-.237-.738.214.214 0 1 0-.383.192 1.9 1.9 0 0 1 .192.546z" transform="translate(-276.01 -161.612)" style="fill:#f5f5f5"/>
            <path data-name="Path 455" d="M263.437 250.04a.214.214 0 0 0-.287.094.614.614 0 0 1-.089.127 1.2 1.2 0 0 1 .056-.4.214.214 0 0 0-.356-.214l-.428.428a.214.214 0 1 0 .3.3l.011-.011a.442.442 0 0 0 .115.225.392.392 0 0 0 .278.123.382.382 0 0 0 .059 0 .7.7 0 0 0 .434-.388.214.214 0 0 0-.093-.284z" transform="translate(-246.622 -239.986)" style="fill:#f5f5f5"/>
            <path data-name="Path 456" d="M171.91 205.861h-1.51q.02-.08.041-.152c.6-.125.959-.319 1.064-.578a.479.479 0 0 0-.081-.48.531.531 0 0 0-.541-.231c-.3.062-.575.389-.77.914a2.462 2.462 0 0 0-1.236.534 3.317 3.317 0 0 0-.444-1.423.214.214 0 1 0-.356.237 3.091 3.091 0 0 1 .392 1.594 1.694 1.694 0 0 1-1.285 1.713c-.24 0-.346-.286-.392-.527a2.459 2.459 0 0 0 1.028-1.134 1.7 1.7 0 0 0-.142-1.161l-.016-.037.013.013a.214.214 0 0 0 .3-.3c-.125-.125-.368-.322-.589-.23a.364.364 0 0 0-.2.381.91.91 0 0 0 .1.344 1.294 1.294 0 0 1 .121.889 1.811 1.811 0 0 1-.7.773.21.21 0 0 0-.162-.079.214.214 0 0 0-.214.214v.122a11.259 11.259 0 0 1-1.377.754.214.214 0 0 0 .089.409.211.211 0 0 0 .088-.019 12.332 12.332 0 0 0 1.279-.685.833.833 0 0 0 .774.7 1.819 1.819 0 0 0 1.432-1.047 1.244 1.244 0 0 0 .143.2 2.413 2.413 0 0 0 1.636.628.214.214 0 0 0 .015-.428.458.458 0 0 1-.267-.13.367.367 0 0 1-.07-.281c.022-.264.873-.461 1.623-.473a.214.214 0 0 0 .2-.142l.214-.6a.214.214 0 0 0-.2-.286zm-.94-1.022h.016c.02 0 .053.01.1.068.008.011.034.048.028.064-.025.061-.172.161-.48.252.131-.267.266-.37.336-.385zm-1.293 2.814a1.311 1.311 0 0 1-.593-.36.91.91 0 0 1-.19-.754.627.627 0 0 1 .045-.091c.3-.028 1.107.091 1.163.322a.719.719 0 0 0-.453.559.9.9 0 0 0 .028.324z" transform="translate(-155.177 -197.529)" style="fill:#f5f5f5"/>
            <path data-name="Path 457" d="m291.809 166.86-.214-.642a.214.214 0 0 0-.416.089c.148 1.477.427 4.358.427 4.689 0 .3-.528.881-1.38 1.307a.214.214 0 0 0 .192.383c.779-.389 1.617-1.084 1.617-1.69 0-.316-.219-2.592-.344-3.871a.214.214 0 0 0 .118-.265z" transform="translate(-272.745 -161.606)" style="fill:#f5f5f5"/>
            <path data-name="Path 458" d="M336.051 194.271a.214.214 0 0 0 .359-.2 1.08 1.08 0 0 1-.031-.416.217.217 0 0 0 .223-.184.214.214 0 0 0-.182-.242.387.387 0 0 0-.353.119.49.49 0 0 0-.108.23l-.248-.248a.214.214 0 0 0-.3.3z" transform="translate(-315.201 -187.086)" style="fill:#f5f5f5"/>
            <path data-name="Path 459" d="m341.021 213.3-.8.575a.214.214 0 0 0 .25.348l.8-.575a.214.214 0 1 0-.249-.348z" transform="translate(-319.689 -205.896)" style="fill:#f5f5f5"/>
            <path data-name="Path 460" d="M352.787 225.745a.214.214 0 0 0 .019.284.593.593 0 0 1 .043.308.214.214 0 0 0 .206.222h.008a.214.214 0 0 0 .214-.206c.016-.437-.127-.6-.19-.645a.214.214 0 0 0-.3.037z" transform="translate(-331.527 -217.532)" style="fill:#f5f5f5"/>
            <path data-name="Path 461" d="M325.261 171.4a.214.214 0 0 0 .214-.214c0-.316-.016-.669-.043-1.035a7.813 7.813 0 0 1 .5.932.214.214 0 0 0 .2.13.211.211 0 0 0 .084-.017.214.214 0 0 0 .112-.281 11.782 11.782 0 0 0-.98-1.689 47.241 47.241 0 0 0-.279-2.108.207.207 0 0 0 .134-.033.121.121 0 1 1 .118-.132.778.778 0 0 1 .078.524.214.214 0 0 0 .166.253.228.228 0 0 0 .044 0 .214.214 0 0 0 .209-.171 1.213 1.213 0 0 0-.136-.841.215.215 0 0 0-.3-.066.212.212 0 0 0-.1.194.206.206 0 0 0-.024-.062l-.361-.562a.214.214 0 0 0-.391.153c0 .017.167.956.312 2.089a48.901 48.901 0 0 0-.487-.675c-.026-.324-.052-.623-.074-.871a.218.218 0 0 0 .035-.014.214.214 0 0 0 .1-.287l-.214-.428a.214.214 0 0 0-.4.117c.026.256.052.538.078.835a57.41 57.41 0 0 0-.368-.48.214.214 0 0 0-.044-.354l-.428-.214a.214.214 0 0 0-.263.325c.012.014.539.675 1.169 1.528a17.21 17.21 0 0 1 .079 3.194c-.019.056-.052.123-.082.125-.129.018-.438-.271-.593-.581a.3.3 0 0 0-.287-.194c-.23.014-.32.267-.483.727a3.013 3.013 0 0 1-.425.906 2.432 2.432 0 0 1-.266-.843.213.213 0 0 0 .414-.072c0-.319-.223-2.751-.348-4.083a.214.214 0 0 0 .123-.266l-.214-.642a.214.214 0 0 0-.416.088c.145 1.527.418 4.477.427 4.884v-.011a.214.214 0 1 0-.424.061c.063.438.222 1.19.59 1.313a.357.357 0 0 0 .114.019.421.421 0 0 0 .3-.14 3.087 3.087 0 0 0 .53-1.07l.1-.284c.2.287.539.644.886.616a.525.525 0 0 0 .458-.417 12.056 12.056 0 0 0-.008-2.673c.18.253.361.512.533.767.067.641.115 1.283.115 1.811a.214.214 0 0 0 .216.219z" transform="translate(-302.132 -161.612)" style="fill:#f5f5f5"/>
            <path data-name="Path 462" d="M382.949 170.682c-.152-1.13-.363-2.439-.5-3.242a.211.211 0 0 0 .179-.038.214.214 0 0 0 .04-.3l-.388-.508a.214.214 0 0 0-.381.167c0 .022.386 2.22.622 3.979a2.007 2.007 0 0 1-.352 1.607.947.947 0 0 1-.785.293.214.214 0 1 0-.027.427h.107a1.351 1.351 0 0 0 1.018-.432 2.391 2.391 0 0 0 .467-1.953z" transform="translate(-358.195 -162.018)" style="fill:#f5f5f5"/>
            <path data-name="Path 463" d="M371.072 256.2a.217.217 0 0 0 .011.3.09.09 0 0 1 .026.044.1.1 0 0 1-.032.048.214.214 0 1 0 .3.3.486.486 0 0 0 .158-.365.51.51 0 0 0-.168-.349.212.212 0 0 0-.295.022z" transform="translate(-348.673 -246.126)" style="fill:#f5f5f5"/>
            <path data-name="Path 464" d="M157.231 327.049h-1.5v-.214a.214.214 0 1 0-.428 0v.214h-11.346a2.989 2.989 0 0 0 1.927.642h9.42v.428a.214.214 0 0 0 .214.214h1.713a.642.642 0 1 0 0-1.285zm0 .856h-1.5v-.214h1.713l-.038-.115a.208.208 0 0 1 .038.115.214.214 0 0 1-.213.215z" transform="translate(-135.587 -312.279)" style="fill:#f5f5f5"/>
        </g>
    </g>
</svg>
