<svg xmlns="http://www.w3.org/2000/svg" width="24" height="24" viewBox="0 0 24 24">
    <g data-name="user-edit/bulk">
        <g data-name="vuesax/bulk/user-edit">
            <path data-name="Vector" d="M10 5a5 5 0 1 1-5-5 5 5 0 0 1 5 5z" transform="translate(7 2)" style="fill:#116780"/>
            <path data-name="Vector" d="M9.09 0C4.08 0 0 3.36 0 7.5a.5.5 0 0 0 .5.5h17.18a.5.5 0 0 0 .5-.5c0-4.14-4.08-7.5-9.09-7.5z" transform="translate(2.91 14.5)" style="opacity:.4;fill:#116780"/>
            <path data-name="Vector" d="M6.259.571a1.365 1.365 0 0 0-2.22 0L.5 4.111a1.232 1.232 0 0 0-.3.59l-.19 1.35a.635.635 0 0 0 .76.76l1.35-.19a1.189 1.189 0 0 0 .59-.3l3.54-3.54a1.349 1.349 0 0 0 .009-2.21z" transform="translate(15.171 14.169)" style="fill:#116780"/>
        </g>
    </g>
</svg>
